<svg width="198" height="61" viewBox="0 0 198 61" fill="none" xmlns="http://www.w3.org/2000/svg">
<path d="M26.2 60.64C22.4133 60.64 19.16 59.84 16.44 58.24C13.72 56.64 11.64 54.2133 10.2 50.96C8.76 47.6533 8.04 43.4933 8.04 38.48C8.04 33.4133 8.78667 29.2533 10.28 26C11.8267 22.7467 13.96 20.32 16.68 18.72C19.4 17.12 22.5733 16.32 26.2 16.32C30.2533 16.32 33.88 17.2267 37.08 19.04C40.3333 20.8533 42.8933 23.4133 44.76 26.72C46.68 30.0267 47.64 33.9467 47.64 38.48C47.64 42.96 46.68 46.8533 44.76 50.16C42.8933 53.4667 40.3333 56.0533 37.08 57.92C33.88 59.7333 30.2533 60.64 26.2 60.64ZM0.76 60V0.639997H13.24V25.68L12.44 38.4L12.68 51.2V60H0.76ZM24.04 50.4C26.12 50.4 27.96 49.92 29.56 48.96C31.2133 48 32.52 46.64 33.48 44.88C34.4933 43.0667 35 40.9333 35 38.48C35 35.9733 34.4933 33.84 33.48 32.08C32.52 30.32 31.2133 28.96 29.56 28C27.96 27.04 26.12 26.56 24.04 26.56C21.96 26.56 20.0933 27.04 18.44 28C16.7867 28.96 15.48 30.32 14.52 32.08C13.56 33.84 13.08 35.9733 13.08 38.48C13.08 40.9333 13.56 43.0667 14.52 44.88C15.48 46.64 16.7867 48 18.44 48.96C20.0933 49.92 21.96 50.4 24.04 50.4ZM74.1544 60.64C70.581 60.64 67.381 59.9467 64.5544 58.56C61.781 57.1733 59.621 55.0667 58.0744 52.24C56.5277 49.36 55.7544 45.7067 55.7544 41.28V16.96H68.2344V39.44C68.2344 43.0133 68.981 45.6533 70.4744 47.36C72.021 49.0133 74.181 49.84 76.9544 49.84C78.8744 49.84 80.581 49.44 82.0744 48.64C83.5677 47.7867 84.741 46.5067 85.5944 44.8C86.4477 43.04 86.8744 40.8533 86.8744 38.24V16.96H99.3544V60H87.5144V48.16L89.6744 51.6C88.2344 54.5867 86.101 56.8533 83.2744 58.4C80.501 59.8933 77.461 60.64 74.1544 60.64Z" fill="#143531"/>
<path d="M125.396 60.64C121.716 60.64 118.17 60.2133 114.756 59.36C111.396 58.4533 108.73 57.3333 106.756 56L110.916 47.04C112.89 48.2667 115.21 49.28 117.876 50.08C120.596 50.8267 123.263 51.2 125.876 51.2C128.756 51.2 130.783 50.8533 131.956 50.16C133.183 49.4667 133.796 48.5067 133.796 47.28C133.796 46.2667 133.316 45.52 132.356 45.04C131.45 44.5067 130.223 44.1067 128.676 43.84C127.13 43.5733 125.423 43.3067 123.556 43.04C121.743 42.7733 119.903 42.4267 118.036 42C116.17 41.52 114.463 40.8267 112.916 39.92C111.37 39.0133 110.116 37.7867 109.156 36.24C108.25 34.6933 107.796 32.6933 107.796 30.24C107.796 27.52 108.57 25.12 110.116 23.04C111.716 20.96 114.01 19.3333 116.996 18.16C119.983 16.9333 123.556 16.32 127.716 16.32C130.65 16.32 133.636 16.64 136.676 17.28C139.716 17.92 142.25 18.8533 144.276 20.08L140.116 28.96C138.036 27.7333 135.93 26.9067 133.796 26.48C131.716 26 129.69 25.76 127.716 25.76C124.943 25.76 122.916 26.1333 121.636 26.88C120.356 27.6267 119.716 28.5867 119.716 29.76C119.716 30.8267 120.17 31.6267 121.076 32.16C122.036 32.6933 123.29 33.12 124.836 33.44C126.383 33.76 128.063 34.0533 129.876 34.32C131.743 34.5333 133.61 34.88 135.476 35.36C137.343 35.84 139.023 36.5333 140.516 37.44C142.063 38.2933 143.316 39.4933 144.276 41.04C145.236 42.5333 145.716 44.5067 145.716 46.96C145.716 49.6267 144.916 52 143.316 54.08C141.716 56.1067 139.396 57.7067 136.356 58.88C133.37 60.0533 129.716 60.64 125.396 60.64ZM179.576 16.32C182.99 16.32 186.03 17.0133 188.696 18.4C191.416 19.7333 193.55 21.8133 195.096 24.64C196.643 27.4133 197.416 30.9867 197.416 35.36V60H184.936V37.28C184.936 33.8133 184.163 31.2533 182.616 29.6C181.123 27.9467 178.99 27.12 176.216 27.12C174.243 27.12 172.456 27.5467 170.856 28.4C169.31 29.2 168.083 30.4533 167.176 32.16C166.323 33.8667 165.896 36.0533 165.896 38.72V60H153.416V0.639997H165.896V28.88L163.096 25.28C164.643 22.4 166.856 20.1867 169.736 18.64C172.616 17.0933 175.896 16.32 179.576 16.32Z" fill="#4BC87F"/>
</svg>
